solid shape, STL ascii file, created with Open CASCADE Technology
 facet normal 6.279052e-02 0.000000e+00 9.980267e-01
   outer loop
     vertex 3.759997e+01 1.100000e+03 2.976344e+02
     vertex -7.347881e-14 1.100000e+03 3.000000e+02
     vertex -7.347881e-14 -1.000000e+02 3.000000e+02
   endloop
 endfacet
 facet normal 6.279052e-02 0.000000e+00 9.980267e-01
   outer loop
     vertex 3.759997e+01 1.100000e+03 2.976344e+02
     vertex -7.347881e-14 -1.000000e+02 3.000000e+02
     vertex 3.759997e+01 -1.000000e+02 2.976344e+02
   endloop
 endfacet
 facet normal 1.873813e-01 0.000000e+00 9.822873e-01
   outer loop
     vertex 7.460697e+01 1.100000e+03 2.905749e+02
     vertex 3.759997e+01 1.100000e+03 2.976344e+02
     vertex 3.759997e+01 -1.000000e+02 2.976344e+02
   endloop
 endfacet
 facet normal 1.873813e-01 0.000000e+00 9.822873e-01
   outer loop
     vertex 7.460697e+01 1.100000e+03 2.905749e+02
     vertex 3.759997e+01 -1.000000e+02 2.976344e+02
     vertex 7.460697e+01 -1.000000e+02 2.905749e+02
   endloop
 endfacet
 facet normal 3.090170e-01 0.000000e+00 9.510565e-01
   outer loop
     vertex 1.104374e+02 1.100000e+03 2.789329e+02
     vertex 7.460697e+01 1.100000e+03 2.905749e+02
     vertex 7.460697e+01 -1.000000e+02 2.905749e+02
   endloop
 endfacet
 facet normal 3.090170e-01 0.000000e+00 9.510565e-01
   outer loop
     vertex 1.104374e+02 1.100000e+03 2.789329e+02
     vertex 7.460697e+01 -1.000000e+02 2.905749e+02
     vertex 1.104374e+02 -1.000000e+02 2.789329e+02
   endloop
 endfacet
 facet normal 4.257793e-01 0.000000e+00 9.048271e-01
   outer loop
     vertex 1.445261e+02 1.100000e+03 2.628920e+02
     vertex 1.104374e+02 1.100000e+03 2.789329e+02
     vertex 1.104374e+02 -1.000000e+02 2.789329e+02
   endloop
 endfacet
 facet normal 4.257793e-01 0.000000e+00 9.048271e-01
   outer loop
     vertex 1.445261e+02 1.100000e+03 2.628920e+02
     vertex 1.104374e+02 -1.000000e+02 2.789329e+02
     vertex 1.445261e+02 -1.000000e+02 2.628920e+02
   endloop
 endfacet
 facet normal 5.358268e-01 0.000000e+00 8.443279e-01
   outer loop
     vertex 1.763356e+02 1.100000e+03 2.427051e+02
     vertex 1.445261e+02 1.100000e+03 2.628920e+02
     vertex 1.445261e+02 -1.000000e+02 2.628920e+02
   endloop
 endfacet
 facet normal 5.358268e-01 0.000000e+00 8.443279e-01
   outer loop
     vertex 1.763356e+02 1.100000e+03 2.427051e+02
     vertex 1.445261e+02 -1.000000e+02 2.628920e+02
     vertex 1.763356e+02 -1.000000e+02 2.427051e+02
   endloop
 endfacet
 facet normal 6.374240e-01 0.000000e+00 7.705132e-01
   outer loop
     vertex 2.053641e+02 1.100000e+03 2.186906e+02
     vertex 1.763356e+02 1.100000e+03 2.427051e+02
     vertex 1.763356e+02 -1.000000e+02 2.427051e+02
   endloop
 endfacet
 facet normal 6.374240e-01 0.000000e+00 7.705132e-01
   outer loop
     vertex 2.053641e+02 1.100000e+03 2.186906e+02
     vertex 1.763356e+02 -1.000000e+02 2.427051e+02
     vertex 2.053641e+02 -1.000000e+02 2.186906e+02
   endloop
 endfacet
 facet normal 7.289686e-01 0.000000e+00 6.845471e-01
   outer loop
     vertex 2.311540e+02 1.100000e+03 1.912272e+02
     vertex 2.053641e+02 1.100000e+03 2.186906e+02
     vertex 2.053641e+02 -1.000000e+02 2.186906e+02
   endloop
 endfacet
 facet normal 7.289686e-01 0.000000e+00 6.845471e-01
   outer loop
     vertex 2.311540e+02 1.100000e+03 1.912272e+02
     vertex 2.053641e+02 -1.000000e+02 2.186906e+02
     vertex 2.311540e+02 -1.000000e+02 1.912272e+02
   endloop
 endfacet
 facet normal 8.090170e-01 0.000000e+00 5.877853e-01
   outer loop
     vertex 2.532984e+02 1.100000e+03 1.607480e+02
     vertex 2.311540e+02 1.100000e+03 1.912272e+02
     vertex 2.311540e+02 -1.000000e+02 1.912272e+02
   endloop
 endfacet
 facet normal 8.090170e-01 0.000000e+00 5.877853e-01
   outer loop
     vertex 2.532984e+02 1.100000e+03 1.607480e+02
     vertex 2.311540e+02 -1.000000e+02 1.912272e+02
     vertex 2.532984e+02 -1.000000e+02 1.607480e+02
   endloop
 endfacet
 facet normal 8.763067e-01 0.000000e+00 4.817537e-01
   outer loop
     vertex 2.714481e+02 1.100000e+03 1.277338e+02
     vertex 2.532984e+02 1.100000e+03 1.607480e+02
     vertex 2.532984e+02 -1.000000e+02 1.607480e+02
   endloop
 endfacet
 facet normal 8.763067e-01 0.000000e+00 4.817537e-01
   outer loop
     vertex 2.714481e+02 1.100000e+03 1.277338e+02
     vertex 2.532984e+02 -1.000000e+02 1.607480e+02
     vertex 2.714481e+02 -1.000000e+02 1.277338e+02
   endloop
 endfacet
 facet normal 9.297765e-01 0.000000e+00 3.681246e-01
   outer loop
     vertex 2.853170e+02 1.100000e+03 9.270510e+01
     vertex 2.714481e+02 1.100000e+03 1.277338e+02
     vertex 2.714481e+02 -1.000000e+02 1.277338e+02
   endloop
 endfacet
 facet normal 9.297765e-01 0.000000e+00 3.681246e-01
   outer loop
     vertex 2.853170e+02 1.100000e+03 9.270510e+01
     vertex 2.714481e+02 -1.000000e+02 1.277338e+02
     vertex 2.853170e+02 -1.000000e+02 9.270510e+01
   endloop
 endfacet
 facet normal 9.685832e-01 0.000000e+00 2.486899e-01
   outer loop
     vertex 2.946862e+02 1.100000e+03 5.621439e+01
     vertex 2.853170e+02 1.100000e+03 9.270510e+01
     vertex 2.853170e+02 -1.000000e+02 9.270510e+01
   endloop
 endfacet
 facet normal 9.685832e-01 0.000000e+00 2.486899e-01
   outer loop
     vertex 2.946862e+02 1.100000e+03 5.621439e+01
     vertex 2.853170e+02 -1.000000e+02 9.270510e+01
     vertex 2.946862e+02 -1.000000e+02 5.621439e+01
   endloop
 endfacet
 facet normal 9.921147e-01 0.000000e+00 1.253332e-01
   outer loop
     vertex 2.994080e+02 1.100000e+03 1.883716e+01
     vertex 2.946862e+02 1.100000e+03 5.621439e+01
     vertex 2.946862e+02 -1.000000e+02 5.621439e+01
   endloop
 endfacet
 facet normal 9.921147e-01 0.000000e+00 1.253332e-01
   outer loop
     vertex 2.994080e+02 1.100000e+03 1.883716e+01
     vertex 2.946862e+02 -1.000000e+02 5.621439e+01
     vertex 2.994080e+02 -1.000000e+02 1.883716e+01
   endloop
 endfacet
 facet normal 1.000000e+00 0.000000e+00 -0.000000e+00
   outer loop
     vertex 2.994080e+02 1.100000e+03 -1.883716e+01
     vertex 2.994080e+02 1.100000e+03 1.883716e+01
     vertex 2.994080e+02 -1.000000e+02 1.883716e+01
   endloop
 endfacet
 facet normal 1.000000e+00 0.000000e+00 0.000000e+00
   outer loop
     vertex 2.994080e+02 1.100000e+03 -1.883716e+01
     vertex 2.994080e+02 -1.000000e+02 1.883716e+01
     vertex 2.994080e+02 -1.000000e+02 -1.883716e+01
   endloop
 endfacet
 facet normal 9.921147e-01 0.000000e+00 -1.253332e-01
   outer loop
     vertex 2.946862e+02 1.100000e+03 -5.621439e+01
     vertex 2.994080e+02 1.100000e+03 -1.883716e+01
     vertex 2.994080e+02 -1.000000e+02 -1.883716e+01
   endloop
 endfacet
 facet normal 9.921147e-01 0.000000e+00 -1.253332e-01
   outer loop
     vertex 2.946862e+02 1.100000e+03 -5.621439e+01
     vertex 2.994080e+02 -1.000000e+02 -1.883716e+01
     vertex 2.946862e+02 -1.000000e+02 -5.621439e+01
   endloop
 endfacet
 facet normal 9.685832e-01 0.000000e+00 -2.486899e-01
   outer loop
     vertex 2.853170e+02 1.100000e+03 -9.270510e+01
     vertex 2.946862e+02 -1.000000e+02 -5.621439e+01
     vertex 2.853170e+02 -1.000000e+02 -9.270510e+01
   endloop
 endfacet
 facet normal 9.685832e-01 0.000000e+00 -2.486899e-01
   outer loop
     vertex 2.853170e+02 1.100000e+03 -9.270510e+01
     vertex 2.946862e+02 1.100000e+03 -5.621439e+01
     vertex 2.946862e+02 -1.000000e+02 -5.621439e+01
   endloop
 endfacet
 facet normal 9.297765e-01 0.000000e+00 -3.681246e-01
   outer loop
     vertex 2.714481e+02 1.100000e+03 -1.277338e+02
     vertex 2.853170e+02 -1.000000e+02 -9.270510e+01
     vertex 2.714481e+02 -1.000000e+02 -1.277338e+02
   endloop
 endfacet
 facet normal 9.297765e-01 0.000000e+00 -3.681246e-01
   outer loop
     vertex 2.714481e+02 1.100000e+03 -1.277338e+02
     vertex 2.853170e+02 1.100000e+03 -9.270510e+01
     vertex 2.853170e+02 -1.000000e+02 -9.270510e+01
   endloop
 endfacet
 facet normal 8.763067e-01 0.000000e+00 -4.817537e-01
   outer loop
     vertex 2.532984e+02 1.100000e+03 -1.607480e+02
     vertex 2.714481e+02 -1.000000e+02 -1.277338e+02
     vertex 2.532984e+02 -1.000000e+02 -1.607480e+02
   endloop
 endfacet
 facet normal 8.763067e-01 0.000000e+00 -4.817537e-01
   outer loop
     vertex 2.532984e+02 1.100000e+03 -1.607480e+02
     vertex 2.714481e+02 1.100000e+03 -1.277338e+02
     vertex 2.714481e+02 -1.000000e+02 -1.277338e+02
   endloop
 endfacet
 facet normal 8.090170e-01 0.000000e+00 -5.877853e-01
   outer loop
     vertex 2.311540e+02 1.100000e+03 -1.912272e+02
     vertex 2.532984e+02 -1.000000e+02 -1.607480e+02
     vertex 2.311540e+02 -1.000000e+02 -1.912272e+02
   endloop
 endfacet
 facet normal 8.090170e-01 0.000000e+00 -5.877853e-01
   outer loop
     vertex 2.311540e+02 1.100000e+03 -1.912272e+02
     vertex 2.532984e+02 1.100000e+03 -1.607480e+02
     vertex 2.532984e+02 -1.000000e+02 -1.607480e+02
   endloop
 endfacet
 facet normal 7.289686e-01 0.000000e+00 -6.845471e-01
   outer loop
     vertex 2.053641e+02 1.100000e+03 -2.186906e+02
     vertex 2.311540e+02 -1.000000e+02 -1.912272e+02
     vertex 2.053641e+02 -1.000000e+02 -2.186906e+02
   endloop
 endfacet
 facet normal 7.289686e-01 0.000000e+00 -6.845471e-01
   outer loop
     vertex 2.053641e+02 1.100000e+03 -2.186906e+02
     vertex 2.311540e+02 1.100000e+03 -1.912272e+02
     vertex 2.311540e+02 -1.000000e+02 -1.912272e+02
   endloop
 endfacet
 facet normal 6.374240e-01 0.000000e+00 -7.705132e-01
   outer loop
     vertex 1.763356e+02 1.100000e+03 -2.427051e+02
     vertex 2.053641e+02 -1.000000e+02 -2.186906e+02
     vertex 1.763356e+02 -1.000000e+02 -2.427051e+02
   endloop
 endfacet
 facet normal 6.374240e-01 0.000000e+00 -7.705132e-01
   outer loop
     vertex 1.763356e+02 1.100000e+03 -2.427051e+02
     vertex 2.053641e+02 1.100000e+03 -2.186906e+02
     vertex 2.053641e+02 -1.000000e+02 -2.186906e+02
   endloop
 endfacet
 facet normal 5.358268e-01 0.000000e+00 -8.443279e-01
   outer loop
     vertex 1.445261e+02 1.100000e+03 -2.628920e+02
     vertex 1.763356e+02 -1.000000e+02 -2.427051e+02
     vertex 1.445261e+02 -1.000000e+02 -2.628920e+02
   endloop
 endfacet
 facet normal 5.358268e-01 0.000000e+00 -8.443279e-01
   outer loop
     vertex 1.445261e+02 1.100000e+03 -2.628920e+02
     vertex 1.763356e+02 1.100000e+03 -2.427051e+02
     vertex 1.763356e+02 -1.000000e+02 -2.427051e+02
   endloop
 endfacet
 facet normal 4.257793e-01 0.000000e+00 -9.048271e-01
   outer loop
     vertex 1.104374e+02 1.100000e+03 -2.789329e+02
     vertex 1.445261e+02 -1.000000e+02 -2.628920e+02
     vertex 1.104374e+02 -1.000000e+02 -2.789329e+02
   endloop
 endfacet
 facet normal 4.257793e-01 0.000000e+00 -9.048271e-01
   outer loop
     vertex 1.104374e+02 1.100000e+03 -2.789329e+02
     vertex 1.445261e+02 1.100000e+03 -2.628920e+02
     vertex 1.445261e+02 -1.000000e+02 -2.628920e+02
   endloop
 endfacet
 facet normal 3.090170e-01 0.000000e+00 -9.510565e-01
   outer loop
     vertex 7.460697e+01 1.100000e+03 -2.905749e+02
     vertex 1.104374e+02 -1.000000e+02 -2.789329e+02
     vertex 7.460697e+01 -1.000000e+02 -2.905749e+02
   endloop
 endfacet
 facet normal 3.090170e-01 0.000000e+00 -9.510565e-01
   outer loop
     vertex 7.460697e+01 1.100000e+03 -2.905749e+02
     vertex 1.104374e+02 1.100000e+03 -2.789329e+02
     vertex 1.104374e+02 -1.000000e+02 -2.789329e+02
   endloop
 endfacet
 facet normal 1.873813e-01 0.000000e+00 -9.822873e-01
   outer loop
     vertex 3.759997e+01 1.100000e+03 -2.976344e+02
     vertex 7.460697e+01 -1.000000e+02 -2.905749e+02
     vertex 3.759997e+01 -1.000000e+02 -2.976344e+02
   endloop
 endfacet
 facet normal 1.873813e-01 0.000000e+00 -9.822873e-01
   outer loop
     vertex 3.759997e+01 1.100000e+03 -2.976344e+02
     vertex 7.460697e+01 1.100000e+03 -2.905749e+02
     vertex 7.460697e+01 -1.000000e+02 -2.905749e+02
   endloop
 endfacet
 facet normal 6.279052e-02 0.000000e+00 -9.980267e-01
   outer loop
     vertex -3.629409e-13 1.100000e+03 -3.000000e+02
     vertex 3.759997e+01 1.100000e+03 -2.976344e+02
     vertex 3.759997e+01 -1.000000e+02 -2.976344e+02
   endloop
 endfacet
 facet normal 6.279052e-02 0.000000e+00 -9.980267e-01
   outer loop
     vertex -3.629409e-13 1.100000e+03 -3.000000e+02
     vertex 3.759997e+01 -1.000000e+02 -2.976344e+02
     vertex -3.629409e-13 -1.000000e+02 -3.000000e+02
   endloop
 endfacet
 facet normal -6.279052e-02 0.000000e+00 -9.980267e-01
   outer loop
     vertex -3.759997e+01 1.100000e+03 -2.976344e+02
     vertex -3.629409e-13 1.100000e+03 -3.000000e+02
     vertex -3.629409e-13 -1.000000e+02 -3.000000e+02
   endloop
 endfacet
 facet normal -6.279052e-02 -0.000000e+00 -9.980267e-01
   outer loop
     vertex -3.759997e+01 1.100000e+03 -2.976344e+02
     vertex -3.629409e-13 -1.000000e+02 -3.000000e+02
     vertex -3.759997e+01 -1.000000e+02 -2.976344e+02
   endloop
 endfacet
 facet normal -1.873813e-01 0.000000e+00 -9.822873e-01
   outer loop
     vertex -7.460697e+01 1.100000e+03 -2.905749e+02
     vertex -3.759997e+01 1.100000e+03 -2.976344e+02
     vertex -3.759997e+01 -1.000000e+02 -2.976344e+02
   endloop
 endfacet
 facet normal -1.873813e-01 -0.000000e+00 -9.822873e-01
   outer loop
     vertex -7.460697e+01 1.100000e+03 -2.905749e+02
     vertex -3.759997e+01 -1.000000e+02 -2.976344e+02
     vertex -7.460697e+01 -1.000000e+02 -2.905749e+02
   endloop
 endfacet
 facet normal -3.090170e-01 0.000000e+00 -9.510565e-01
   outer loop
     vertex -1.104374e+02 1.100000e+03 -2.789329e+02
     vertex -7.460697e+01 1.100000e+03 -2.905749e+02
     vertex -7.460697e+01 -1.000000e+02 -2.905749e+02
   endloop
 endfacet
 facet normal -3.090170e-01 -0.000000e+00 -9.510565e-01
   outer loop
     vertex -1.104374e+02 1.100000e+03 -2.789329e+02
     vertex -7.460697e+01 -1.000000e+02 -2.905749e+02
     vertex -1.104374e+02 -1.000000e+02 -2.789329e+02
   endloop
 endfacet
 facet normal -4.257793e-01 0.000000e+00 -9.048271e-01
   outer loop
     vertex -1.445261e+02 1.100000e+03 -2.628920e+02
     vertex -1.104374e+02 1.100000e+03 -2.789329e+02
     vertex -1.104374e+02 -1.000000e+02 -2.789329e+02
   endloop
 endfacet
 facet normal -4.257793e-01 -0.000000e+00 -9.048271e-01
   outer loop
     vertex -1.445261e+02 1.100000e+03 -2.628920e+02
     vertex -1.104374e+02 -1.000000e+02 -2.789329e+02
     vertex -1.445261e+02 -1.000000e+02 -2.628920e+02
   endloop
 endfacet
 facet normal -5.358268e-01 0.000000e+00 -8.443279e-01
   outer loop
     vertex -1.763356e+02 1.100000e+03 -2.427051e+02
     vertex -1.445261e+02 1.100000e+03 -2.628920e+02
     vertex -1.445261e+02 -1.000000e+02 -2.628920e+02
   endloop
 endfacet
 facet normal -5.358268e-01 -0.000000e+00 -8.443279e-01
   outer loop
     vertex -1.763356e+02 1.100000e+03 -2.427051e+02
     vertex -1.445261e+02 -1.000000e+02 -2.628920e+02
     vertex -1.763356e+02 -1.000000e+02 -2.427051e+02
   endloop
 endfacet
 facet normal -6.374240e-01 0.000000e+00 -7.705132e-01
   outer loop
     vertex -2.053641e+02 1.100000e+03 -2.186906e+02
     vertex -1.763356e+02 1.100000e+03 -2.427051e+02
     vertex -1.763356e+02 -1.000000e+02 -2.427051e+02
   endloop
 endfacet
 facet normal -6.374240e-01 -0.000000e+00 -7.705132e-01
   outer loop
     vertex -2.053641e+02 1.100000e+03 -2.186906e+02
     vertex -1.763356e+02 -1.000000e+02 -2.427051e+02
     vertex -2.053641e+02 -1.000000e+02 -2.186906e+02
   endloop
 endfacet
 facet normal -7.289686e-01 0.000000e+00 -6.845471e-01
   outer loop
     vertex -2.311540e+02 1.100000e+03 -1.912272e+02
     vertex -2.053641e+02 1.100000e+03 -2.186906e+02
     vertex -2.053641e+02 -1.000000e+02 -2.186906e+02
   endloop
 endfacet
 facet normal -7.289686e-01 -0.000000e+00 -6.845471e-01
   outer loop
     vertex -2.311540e+02 1.100000e+03 -1.912272e+02
     vertex -2.053641e+02 -1.000000e+02 -2.186906e+02
     vertex -2.311540e+02 -1.000000e+02 -1.912272e+02
   endloop
 endfacet
 facet normal -8.090170e-01 0.000000e+00 -5.877853e-01
   outer loop
     vertex -2.532984e+02 1.100000e+03 -1.607480e+02
     vertex -2.311540e+02 1.100000e+03 -1.912272e+02
     vertex -2.311540e+02 -1.000000e+02 -1.912272e+02
   endloop
 endfacet
 facet normal -8.090170e-01 -0.000000e+00 -5.877853e-01
   outer loop
     vertex -2.532984e+02 1.100000e+03 -1.607480e+02
     vertex -2.311540e+02 -1.000000e+02 -1.912272e+02
     vertex -2.532984e+02 -1.000000e+02 -1.607480e+02
   endloop
 endfacet
 facet normal -8.763067e-01 0.000000e+00 -4.817537e-01
   outer loop
     vertex -2.714481e+02 1.100000e+03 -1.277338e+02
     vertex -2.532984e+02 1.100000e+03 -1.607480e+02
     vertex -2.532984e+02 -1.000000e+02 -1.607480e+02
   endloop
 endfacet
 facet normal -8.763067e-01 -0.000000e+00 -4.817537e-01
   outer loop
     vertex -2.714481e+02 1.100000e+03 -1.277338e+02
     vertex -2.532984e+02 -1.000000e+02 -1.607480e+02
     vertex -2.714481e+02 -1.000000e+02 -1.277338e+02
   endloop
 endfacet
 facet normal -9.297765e-01 0.000000e+00 -3.681246e-01
   outer loop
     vertex -2.853170e+02 1.100000e+03 -9.270510e+01
     vertex -2.714481e+02 1.100000e+03 -1.277338e+02
     vertex -2.714481e+02 -1.000000e+02 -1.277338e+02
   endloop
 endfacet
 facet normal -9.297765e-01 -0.000000e+00 -3.681246e-01
   outer loop
     vertex -2.853170e+02 1.100000e+03 -9.270510e+01
     vertex -2.714481e+02 -1.000000e+02 -1.277338e+02
     vertex -2.853170e+02 -1.000000e+02 -9.270510e+01
   endloop
 endfacet
 facet normal -9.685832e-01 0.000000e+00 -2.486899e-01
   outer loop
     vertex -2.946862e+02 1.100000e+03 -5.621439e+01
     vertex -2.853170e+02 1.100000e+03 -9.270510e+01
     vertex -2.853170e+02 -1.000000e+02 -9.270510e+01
   endloop
 endfacet
 facet normal -9.685832e-01 -0.000000e+00 -2.486899e-01
   outer loop
     vertex -2.946862e+02 1.100000e+03 -5.621439e+01
     vertex -2.853170e+02 -1.000000e+02 -9.270510e+01
     vertex -2.946862e+02 -1.000000e+02 -5.621439e+01
   endloop
 endfacet
 facet normal -9.921147e-01 0.000000e+00 -1.253332e-01
   outer loop
     vertex -2.994080e+02 1.100000e+03 -1.883716e+01
     vertex -2.946862e+02 1.100000e+03 -5.621439e+01
     vertex -2.946862e+02 -1.000000e+02 -5.621439e+01
   endloop
 endfacet
 facet normal -9.921147e-01 -0.000000e+00 -1.253332e-01
   outer loop
     vertex -2.994080e+02 1.100000e+03 -1.883716e+01
     vertex -2.946862e+02 -1.000000e+02 -5.621439e+01
     vertex -2.994080e+02 -1.000000e+02 -1.883716e+01
   endloop
 endfacet
 facet normal -1.000000e+00 0.000000e+00 3.017622e-15
   outer loop
     vertex -2.994080e+02 1.100000e+03 1.883716e+01
     vertex -2.994080e+02 1.100000e+03 -1.883716e+01
     vertex -2.994080e+02 -1.000000e+02 -1.883716e+01
   endloop
 endfacet
 facet normal -1.000000e+00 0.000000e+00 3.017622e-15
   outer loop
     vertex -2.994080e+02 1.100000e+03 1.883716e+01
     vertex -2.994080e+02 -1.000000e+02 -1.883716e+01
     vertex -2.994080e+02 -1.000000e+02 1.883716e+01
   endloop
 endfacet
 facet normal -9.921147e-01 0.000000e+00 1.253332e-01
   outer loop
     vertex -2.946862e+02 1.100000e+03 5.621439e+01
     vertex -2.994080e+02 1.100000e+03 1.883716e+01
     vertex -2.994080e+02 -1.000000e+02 1.883716e+01
   endloop
 endfacet
 facet normal -9.921147e-01 0.000000e+00 1.253332e-01
   outer loop
     vertex -2.946862e+02 1.100000e+03 5.621439e+01
     vertex -2.994080e+02 -1.000000e+02 1.883716e+01
     vertex -2.946862e+02 -1.000000e+02 5.621439e+01
   endloop
 endfacet
 facet normal -9.685832e-01 0.000000e+00 2.486899e-01
   outer loop
     vertex -2.853170e+02 1.100000e+03 9.270510e+01
     vertex -2.946862e+02 1.100000e+03 5.621439e+01
     vertex -2.946862e+02 -1.000000e+02 5.621439e+01
   endloop
 endfacet
 facet normal -9.685832e-01 0.000000e+00 2.486899e-01
   outer loop
     vertex -2.853170e+02 1.100000e+03 9.270510e+01
     vertex -2.946862e+02 -1.000000e+02 5.621439e+01
     vertex -2.853170e+02 -1.000000e+02 9.270510e+01
   endloop
 endfacet
 facet normal -9.297765e-01 0.000000e+00 3.681246e-01
   outer loop
     vertex -2.714481e+02 1.100000e+03 1.277338e+02
     vertex -2.853170e+02 1.100000e+03 9.270510e+01
     vertex -2.853170e+02 -1.000000e+02 9.270510e+01
   endloop
 endfacet
 facet normal -9.297765e-01 0.000000e+00 3.681246e-01
   outer loop
     vertex -2.714481e+02 1.100000e+03 1.277338e+02
     vertex -2.853170e+02 -1.000000e+02 9.270510e+01
     vertex -2.714481e+02 -1.000000e+02 1.277338e+02
   endloop
 endfacet
 facet normal -8.763067e-01 0.000000e+00 4.817537e-01
   outer loop
     vertex -2.532984e+02 1.100000e+03 1.607480e+02
     vertex -2.714481e+02 1.100000e+03 1.277338e+02
     vertex -2.714481e+02 -1.000000e+02 1.277338e+02
   endloop
 endfacet
 facet normal -8.763067e-01 0.000000e+00 4.817537e-01
   outer loop
     vertex -2.532984e+02 1.100000e+03 1.607480e+02
     vertex -2.714481e+02 -1.000000e+02 1.277338e+02
     vertex -2.532984e+02 -1.000000e+02 1.607480e+02
   endloop
 endfacet
 facet normal -8.090170e-01 0.000000e+00 5.877853e-01
   outer loop
     vertex -2.311540e+02 1.100000e+03 1.912272e+02
     vertex -2.532984e+02 1.100000e+03 1.607480e+02
     vertex -2.532984e+02 -1.000000e+02 1.607480e+02
   endloop
 endfacet
 facet normal -8.090170e-01 0.000000e+00 5.877853e-01
   outer loop
     vertex -2.311540e+02 1.100000e+03 1.912272e+02
     vertex -2.532984e+02 -1.000000e+02 1.607480e+02
     vertex -2.311540e+02 -1.000000e+02 1.912272e+02
   endloop
 endfacet
 facet normal -7.289686e-01 0.000000e+00 6.845471e-01
   outer loop
     vertex -2.053641e+02 1.100000e+03 2.186906e+02
     vertex -2.311540e+02 1.100000e+03 1.912272e+02
     vertex -2.311540e+02 -1.000000e+02 1.912272e+02
   endloop
 endfacet
 facet normal -7.289686e-01 0.000000e+00 6.845471e-01
   outer loop
     vertex -2.053641e+02 1.100000e+03 2.186906e+02
     vertex -2.311540e+02 -1.000000e+02 1.912272e+02
     vertex -2.053641e+02 -1.000000e+02 2.186906e+02
   endloop
 endfacet
 facet normal -6.374240e-01 0.000000e+00 7.705132e-01
   outer loop
     vertex -1.763356e+02 1.100000e+03 2.427051e+02
     vertex -2.053641e+02 1.100000e+03 2.186906e+02
     vertex -2.053641e+02 -1.000000e+02 2.186906e+02
   endloop
 endfacet
 facet normal -6.374240e-01 0.000000e+00 7.705132e-01
   outer loop
     vertex -1.763356e+02 1.100000e+03 2.427051e+02
     vertex -2.053641e+02 -1.000000e+02 2.186906e+02
     vertex -1.763356e+02 -1.000000e+02 2.427051e+02
   endloop
 endfacet
 facet normal -5.358268e-01 0.000000e+00 8.443279e-01
   outer loop
     vertex -1.445261e+02 1.100000e+03 2.628920e+02
     vertex -1.763356e+02 1.100000e+03 2.427051e+02
     vertex -1.763356e+02 -1.000000e+02 2.427051e+02
   endloop
 endfacet
 facet normal -5.358268e-01 0.000000e+00 8.443279e-01
   outer loop
     vertex -1.445261e+02 1.100000e+03 2.628920e+02
     vertex -1.763356e+02 -1.000000e+02 2.427051e+02
     vertex -1.445261e+02 -1.000000e+02 2.628920e+02
   endloop
 endfacet
 facet normal -4.257793e-01 0.000000e+00 9.048271e-01
   outer loop
     vertex -1.104374e+02 1.100000e+03 2.789329e+02
     vertex -1.445261e+02 1.100000e+03 2.628920e+02
     vertex -1.445261e+02 -1.000000e+02 2.628920e+02
   endloop
 endfacet
 facet normal -4.257793e-01 0.000000e+00 9.048271e-01
   outer loop
     vertex -1.104374e+02 1.100000e+03 2.789329e+02
     vertex -1.445261e+02 -1.000000e+02 2.628920e+02
     vertex -1.104374e+02 -1.000000e+02 2.789329e+02
   endloop
 endfacet
 facet normal -3.090170e-01 0.000000e+00 9.510565e-01
   outer loop
     vertex -7.460697e+01 1.100000e+03 2.905749e+02
     vertex -1.104374e+02 1.100000e+03 2.789329e+02
     vertex -1.104374e+02 -1.000000e+02 2.789329e+02
   endloop
 endfacet
 facet normal -3.090170e-01 0.000000e+00 9.510565e-01
   outer loop
     vertex -7.460697e+01 1.100000e+03 2.905749e+02
     vertex -1.104374e+02 -1.000000e+02 2.789329e+02
     vertex -7.460697e+01 -1.000000e+02 2.905749e+02
   endloop
 endfacet
 facet normal -1.873813e-01 0.000000e+00 9.822873e-01
   outer loop
     vertex -3.759997e+01 1.100000e+03 2.976344e+02
     vertex -7.460697e+01 1.100000e+03 2.905749e+02
     vertex -7.460697e+01 -1.000000e+02 2.905749e+02
   endloop
 endfacet
 facet normal -1.873813e-01 0.000000e+00 9.822873e-01
   outer loop
     vertex -3.759997e+01 1.100000e+03 2.976344e+02
     vertex -7.460697e+01 -1.000000e+02 2.905749e+02
     vertex -3.759997e+01 -1.000000e+02 2.976344e+02
   endloop
 endfacet
 facet normal -6.279052e-02 0.000000e+00 9.980267e-01
   outer loop
     vertex -7.347881e-14 1.100000e+03 3.000000e+02
     vertex -3.759997e+01 -1.000000e+02 2.976344e+02
     vertex -7.347881e-14 -1.000000e+02 3.000000e+02
   endloop
 endfacet
 facet normal -6.279052e-02 0.000000e+00 9.980267e-01
   outer loop
     vertex -7.347881e-14 1.100000e+03 3.000000e+02
     vertex -3.759997e+01 1.100000e+03 2.976344e+02
     vertex -3.759997e+01 -1.000000e+02 2.976344e+02
   endloop
 endfacet
 facet normal 0.000000e+00 1.000000e+00 0.000000e+00
   outer loop
     vertex -7.460697e+01 1.100000e+03 2.905749e+02
     vertex -2.311540e+02 1.100000e+03 1.912272e+02
     vertex -2.053641e+02 1.100000e+03 2.186906e+02
   endloop
 endfacet
 facet normal 0.000000e+00 1.000000e+00 0.000000e+00
   outer loop
     vertex -7.460697e+01 1.100000e+03 2.905749e+02
     vertex -2.053641e+02 1.100000e+03 2.186906e+02
     vertex -1.763356e+02 1.100000e+03 2.427051e+02
   endloop
 endfacet
 facet normal 0.000000e+00 1.000000e+00 0.000000e+00
   outer loop
     vertex -7.460697e+01 1.100000e+03 2.905749e+02
     vertex -1.763356e+02 1.100000e+03 2.427051e+02
     vertex -1.445261e+02 1.100000e+03 2.628920e+02
   endloop
 endfacet
 facet normal 0.000000e+00 1.000000e+00 0.000000e+00
   outer loop
     vertex -7.460697e+01 1.100000e+03 2.905749e+02
     vertex -1.445261e+02 1.100000e+03 2.628920e+02
     vertex -1.104374e+02 1.100000e+03 2.789329e+02
   endloop
 endfacet
 facet normal 0.000000e+00 1.000000e+00 0.000000e+00
   outer loop
     vertex 2.946862e+02 1.100000e+03 -5.621439e+01
     vertex 2.853170e+02 1.100000e+03 -9.270510e+01
     vertex 2.714481e+02 1.100000e+03 -1.277338e+02
   endloop
 endfacet
 facet normal 0.000000e+00 1.000000e+00 0.000000e+00
   outer loop
     vertex -2.532984e+02 1.100000e+03 -1.607480e+02
     vertex -2.053641e+02 1.100000e+03 -2.186906e+02
     vertex -2.311540e+02 1.100000e+03 -1.912272e+02
   endloop
 endfacet
 facet normal 0.000000e+00 1.000000e+00 0.000000e+00
   outer loop
     vertex -1.445261e+02 1.100000e+03 -2.628920e+02
     vertex -1.763356e+02 1.100000e+03 -2.427051e+02
     vertex -2.053641e+02 1.100000e+03 -2.186906e+02
   endloop
 endfacet
 facet normal 0.000000e+00 1.000000e+00 0.000000e+00
   outer loop
     vertex -7.347881e-14 1.100000e+03 3.000000e+02
     vertex -2.311540e+02 1.100000e+03 1.912272e+02
     vertex -7.460697e+01 1.100000e+03 2.905749e+02
   endloop
 endfacet
 facet normal 0.000000e+00 1.000000e+00 0.000000e+00
   outer loop
     vertex -7.347881e-14 1.100000e+03 3.000000e+02
     vertex -7.460697e+01 1.100000e+03 2.905749e+02
     vertex -3.759997e+01 1.100000e+03 2.976344e+02
   endloop
 endfacet
 facet normal 0.000000e+00 1.000000e+00 0.000000e+00
   outer loop
     vertex -7.460697e+01 1.100000e+03 -2.905749e+02
     vertex -1.104374e+02 1.100000e+03 -2.789329e+02
     vertex -1.445261e+02 1.100000e+03 -2.628920e+02
   endloop
 endfacet
 facet normal 0.000000e+00 1.000000e+00 0.000000e+00
   outer loop
     vertex -2.946862e+02 1.100000e+03 -5.621439e+01
     vertex -2.532984e+02 1.100000e+03 -1.607480e+02
     vertex -2.714481e+02 1.100000e+03 -1.277338e+02
   endloop
 endfacet
 facet normal 0.000000e+00 1.000000e+00 0.000000e+00
   outer loop
     vertex -2.946862e+02 1.100000e+03 -5.621439e+01
     vertex -2.714481e+02 1.100000e+03 -1.277338e+02
     vertex -2.853170e+02 1.100000e+03 -9.270510e+01
   endloop
 endfacet
 facet normal 0.000000e+00 1.000000e+00 0.000000e+00
   outer loop
     vertex 2.853170e+02 1.100000e+03 9.270510e+01
     vertex 2.714481e+02 1.100000e+03 -1.277338e+02
     vertex -2.311540e+02 1.100000e+03 1.912272e+02
   endloop
 endfacet
 facet normal 0.000000e+00 1.000000e+00 0.000000e+00
   outer loop
     vertex 2.853170e+02 1.100000e+03 9.270510e+01
     vertex 2.946862e+02 1.100000e+03 5.621439e+01
     vertex 2.994080e+02 1.100000e+03 1.883716e+01
   endloop
 endfacet
 facet normal 0.000000e+00 1.000000e+00 0.000000e+00
   outer loop
     vertex 2.853170e+02 1.100000e+03 9.270510e+01
     vertex 2.994080e+02 1.100000e+03 1.883716e+01
     vertex 2.994080e+02 1.100000e+03 -1.883716e+01
   endloop
 endfacet
 facet normal 0.000000e+00 1.000000e+00 0.000000e+00
   outer loop
     vertex 2.853170e+02 1.100000e+03 9.270510e+01
     vertex 2.994080e+02 1.100000e+03 -1.883716e+01
     vertex 2.946862e+02 1.100000e+03 -5.621439e+01
   endloop
 endfacet
 facet normal 0.000000e+00 1.000000e+00 0.000000e+00
   outer loop
     vertex 2.853170e+02 1.100000e+03 9.270510e+01
     vertex 2.946862e+02 1.100000e+03 -5.621439e+01
     vertex 2.714481e+02 1.100000e+03 -1.277338e+02
   endloop
 endfacet
 facet normal 0.000000e+00 1.000000e+00 0.000000e+00
   outer loop
     vertex 2.853170e+02 1.100000e+03 9.270510e+01
     vertex -2.311540e+02 1.100000e+03 1.912272e+02
     vertex -7.347881e-14 1.100000e+03 3.000000e+02
   endloop
 endfacet
 facet normal 0.000000e+00 1.000000e+00 0.000000e+00
   outer loop
     vertex 1.104374e+02 1.100000e+03 2.789329e+02
     vertex -7.347881e-14 1.100000e+03 3.000000e+02
     vertex 3.759997e+01 1.100000e+03 2.976344e+02
   endloop
 endfacet
 facet normal 0.000000e+00 1.000000e+00 0.000000e+00
   outer loop
     vertex 1.104374e+02 1.100000e+03 2.789329e+02
     vertex 3.759997e+01 1.100000e+03 2.976344e+02
     vertex 7.460697e+01 1.100000e+03 2.905749e+02
   endloop
 endfacet
 facet normal 0.000000e+00 1.000000e+00 0.000000e+00
   outer loop
     vertex -3.629409e-13 1.100000e+03 -3.000000e+02
     vertex -3.759997e+01 1.100000e+03 -2.976344e+02
     vertex -7.460697e+01 1.100000e+03 -2.905749e+02
   endloop
 endfacet
 facet normal 0.000000e+00 1.000000e+00 0.000000e+00
   outer loop
     vertex 1.445261e+02 1.100000e+03 2.628920e+02
     vertex 2.853170e+02 1.100000e+03 9.270510e+01
     vertex -7.347881e-14 1.100000e+03 3.000000e+02
   endloop
 endfacet
 facet normal 0.000000e+00 1.000000e+00 0.000000e+00
   outer loop
     vertex 1.445261e+02 1.100000e+03 2.628920e+02
     vertex -7.347881e-14 1.100000e+03 3.000000e+02
     vertex 1.104374e+02 1.100000e+03 2.789329e+02
   endloop
 endfacet
 facet normal 0.000000e+00 1.000000e+00 0.000000e+00
   outer loop
     vertex 2.532984e+02 1.100000e+03 1.607480e+02
     vertex 2.714481e+02 1.100000e+03 1.277338e+02
     vertex 2.853170e+02 1.100000e+03 9.270510e+01
   endloop
 endfacet
 facet normal 0.000000e+00 1.000000e+00 0.000000e+00
   outer loop
     vertex 2.311540e+02 1.100000e+03 1.912272e+02
     vertex 2.853170e+02 1.100000e+03 9.270510e+01
     vertex 1.445261e+02 1.100000e+03 2.628920e+02
   endloop
 endfacet
 facet normal 0.000000e+00 1.000000e+00 0.000000e+00
   outer loop
     vertex 2.311540e+02 1.100000e+03 1.912272e+02
     vertex 2.532984e+02 1.100000e+03 1.607480e+02
     vertex 2.853170e+02 1.100000e+03 9.270510e+01
   endloop
 endfacet
 facet normal 0.000000e+00 1.000000e+00 0.000000e+00
   outer loop
     vertex 3.759997e+01 1.100000e+03 -2.976344e+02
     vertex -3.629409e-13 1.100000e+03 -3.000000e+02
     vertex -7.460697e+01 1.100000e+03 -2.905749e+02
   endloop
 endfacet
 facet normal 0.000000e+00 1.000000e+00 0.000000e+00
   outer loop
     vertex 2.053641e+02 1.100000e+03 2.186906e+02
     vertex 1.445261e+02 1.100000e+03 2.628920e+02
     vertex 1.763356e+02 1.100000e+03 2.427051e+02
   endloop
 endfacet
 facet normal 0.000000e+00 1.000000e+00 0.000000e+00
   outer loop
     vertex 2.053641e+02 1.100000e+03 2.186906e+02
     vertex 2.311540e+02 1.100000e+03 1.912272e+02
     vertex 1.445261e+02 1.100000e+03 2.628920e+02
   endloop
 endfacet
 facet normal 0.000000e+00 1.000000e+00 0.000000e+00
   outer loop
     vertex -2.946862e+02 1.100000e+03 5.621439e+01
     vertex -2.946862e+02 1.100000e+03 -5.621439e+01
     vertex -2.994080e+02 1.100000e+03 -1.883716e+01
   endloop
 endfacet
 facet normal 0.000000e+00 1.000000e+00 0.000000e+00
   outer loop
     vertex -2.946862e+02 1.100000e+03 5.621439e+01
     vertex -2.994080e+02 1.100000e+03 -1.883716e+01
     vertex -2.994080e+02 1.100000e+03 1.883716e+01
   endloop
 endfacet
 facet normal 0.000000e+00 1.000000e+00 0.000000e+00
   outer loop
     vertex -2.946862e+02 1.100000e+03 5.621439e+01
     vertex -2.053641e+02 1.100000e+03 -2.186906e+02
     vertex -2.532984e+02 1.100000e+03 -1.607480e+02
   endloop
 endfacet
 facet normal 0.000000e+00 1.000000e+00 0.000000e+00
   outer loop
     vertex -2.946862e+02 1.100000e+03 5.621439e+01
     vertex -1.445261e+02 1.100000e+03 -2.628920e+02
     vertex -2.053641e+02 1.100000e+03 -2.186906e+02
   endloop
 endfacet
 facet normal 0.000000e+00 1.000000e+00 0.000000e+00
   outer loop
     vertex -2.946862e+02 1.100000e+03 5.621439e+01
     vertex -2.532984e+02 1.100000e+03 -1.607480e+02
     vertex -2.946862e+02 1.100000e+03 -5.621439e+01
   endloop
 endfacet
 facet normal 0.000000e+00 1.000000e+00 0.000000e+00
   outer loop
     vertex 7.460697e+01 1.100000e+03 -2.905749e+02
     vertex 3.759997e+01 1.100000e+03 -2.976344e+02
     vertex -7.460697e+01 1.100000e+03 -2.905749e+02
   endloop
 endfacet
 facet normal 0.000000e+00 1.000000e+00 0.000000e+00
   outer loop
     vertex 1.445261e+02 1.100000e+03 -2.628920e+02
     vertex 1.104374e+02 1.100000e+03 -2.789329e+02
     vertex 7.460697e+01 1.100000e+03 -2.905749e+02
   endloop
 endfacet
 facet normal 0.000000e+00 1.000000e+00 0.000000e+00
   outer loop
     vertex -2.532984e+02 1.100000e+03 1.607480e+02
     vertex -2.946862e+02 1.100000e+03 5.621439e+01
     vertex -2.853170e+02 1.100000e+03 9.270510e+01
   endloop
 endfacet
 facet normal 0.000000e+00 1.000000e+00 0.000000e+00
   outer loop
     vertex -2.532984e+02 1.100000e+03 1.607480e+02
     vertex -2.853170e+02 1.100000e+03 9.270510e+01
     vertex -2.714481e+02 1.100000e+03 1.277338e+02
   endloop
 endfacet
 facet normal 0.000000e+00 1.000000e+00 0.000000e+00
   outer loop
     vertex 2.053641e+02 1.100000e+03 -2.186906e+02
     vertex 1.763356e+02 1.100000e+03 -2.427051e+02
     vertex 1.445261e+02 1.100000e+03 -2.628920e+02
   endloop
 endfacet
 facet normal 0.000000e+00 1.000000e+00 0.000000e+00
   outer loop
     vertex 2.053641e+02 1.100000e+03 -2.186906e+02
     vertex 7.460697e+01 1.100000e+03 -2.905749e+02
     vertex -7.460697e+01 1.100000e+03 -2.905749e+02
   endloop
 endfacet
 facet normal 0.000000e+00 1.000000e+00 0.000000e+00
   outer loop
     vertex 2.053641e+02 1.100000e+03 -2.186906e+02
     vertex 1.445261e+02 1.100000e+03 -2.628920e+02
     vertex 7.460697e+01 1.100000e+03 -2.905749e+02
   endloop
 endfacet
 facet normal 0.000000e+00 1.000000e+00 0.000000e+00
   outer loop
     vertex 2.714481e+02 1.100000e+03 -1.277338e+02
     vertex 2.532984e+02 1.100000e+03 -1.607480e+02
     vertex 2.311540e+02 1.100000e+03 -1.912272e+02
   endloop
 endfacet
 facet normal 0.000000e+00 1.000000e+00 0.000000e+00
   outer loop
     vertex 2.714481e+02 1.100000e+03 -1.277338e+02
     vertex 2.311540e+02 1.100000e+03 -1.912272e+02
     vertex 2.053641e+02 1.100000e+03 -2.186906e+02
   endloop
 endfacet
 facet normal 0.000000e+00 1.000000e+00 0.000000e+00
   outer loop
     vertex 2.714481e+02 1.100000e+03 -1.277338e+02
     vertex -2.532984e+02 1.100000e+03 1.607480e+02
     vertex -2.311540e+02 1.100000e+03 1.912272e+02
   endloop
 endfacet
 facet normal 0.000000e+00 1.000000e+00 0.000000e+00
   outer loop
     vertex 2.714481e+02 1.100000e+03 -1.277338e+02
     vertex -7.460697e+01 1.100000e+03 -2.905749e+02
     vertex -1.445261e+02 1.100000e+03 -2.628920e+02
   endloop
 endfacet
 facet normal 0.000000e+00 1.000000e+00 0.000000e+00
   outer loop
     vertex 2.714481e+02 1.100000e+03 -1.277338e+02
     vertex -1.445261e+02 1.100000e+03 -2.628920e+02
     vertex -2.946862e+02 1.100000e+03 5.621439e+01
   endloop
 endfacet
 facet normal 0.000000e+00 1.000000e+00 0.000000e+00
   outer loop
     vertex 2.714481e+02 1.100000e+03 -1.277338e+02
     vertex -2.946862e+02 1.100000e+03 5.621439e+01
     vertex -2.532984e+02 1.100000e+03 1.607480e+02
   endloop
 endfacet
 facet normal 0.000000e+00 1.000000e+00 0.000000e+00
   outer loop
     vertex 2.714481e+02 1.100000e+03 -1.277338e+02
     vertex 2.053641e+02 1.100000e+03 -2.186906e+02
     vertex -7.460697e+01 1.100000e+03 -2.905749e+02
   endloop
 endfacet
 facet normal 0.000000e+00 -1.000000e+00 0.000000e+00
   outer loop
     vertex -7.460697e+01 -1.000000e+02 2.905749e+02
     vertex -2.053641e+02 -1.000000e+02 2.186906e+02
     vertex -2.311540e+02 -1.000000e+02 1.912272e+02
   endloop
 endfacet
 facet normal 0.000000e+00 -1.000000e+00 0.000000e+00
   outer loop
     vertex -7.460697e+01 -1.000000e+02 2.905749e+02
     vertex -1.763356e+02 -1.000000e+02 2.427051e+02
     vertex -2.053641e+02 -1.000000e+02 2.186906e+02
   endloop
 endfacet
 facet normal 0.000000e+00 -1.000000e+00 0.000000e+00
   outer loop
     vertex -7.460697e+01 -1.000000e+02 2.905749e+02
     vertex -1.445261e+02 -1.000000e+02 2.628920e+02
     vertex -1.763356e+02 -1.000000e+02 2.427051e+02
   endloop
 endfacet
 facet normal 0.000000e+00 -1.000000e+00 0.000000e+00
   outer loop
     vertex -7.460697e+01 -1.000000e+02 2.905749e+02
     vertex -1.104374e+02 -1.000000e+02 2.789329e+02
     vertex -1.445261e+02 -1.000000e+02 2.628920e+02
   endloop
 endfacet
 facet normal 0.000000e+00 -1.000000e+00 0.000000e+00
   outer loop
     vertex 2.946862e+02 -1.000000e+02 -5.621439e+01
     vertex 2.714481e+02 -1.000000e+02 -1.277338e+02
     vertex 2.853170e+02 -1.000000e+02 -9.270510e+01
   endloop
 endfacet
 facet normal 0.000000e+00 -1.000000e+00 0.000000e+00
   outer loop
     vertex -2.532984e+02 -1.000000e+02 -1.607480e+02
     vertex -2.311540e+02 -1.000000e+02 -1.912272e+02
     vertex -2.053641e+02 -1.000000e+02 -2.186906e+02
   endloop
 endfacet
 facet normal 0.000000e+00 -1.000000e+00 0.000000e+00
   outer loop
     vertex -1.445261e+02 -1.000000e+02 -2.628920e+02
     vertex -2.053641e+02 -1.000000e+02 -2.186906e+02
     vertex -1.763356e+02 -1.000000e+02 -2.427051e+02
   endloop
 endfacet
 facet normal 0.000000e+00 -1.000000e+00 0.000000e+00
   outer loop
     vertex -7.347881e-14 -1.000000e+02 3.000000e+02
     vertex -3.759997e+01 -1.000000e+02 2.976344e+02
     vertex -7.460697e+01 -1.000000e+02 2.905749e+02
   endloop
 endfacet
 facet normal 0.000000e+00 -1.000000e+00 0.000000e+00
   outer loop
     vertex -7.460697e+01 -1.000000e+02 -2.905749e+02
     vertex -1.445261e+02 -1.000000e+02 -2.628920e+02
     vertex -1.104374e+02 -1.000000e+02 -2.789329e+02
   endloop
 endfacet
 facet normal 0.000000e+00 -1.000000e+00 0.000000e+00
   outer loop
     vertex -2.946862e+02 -1.000000e+02 -5.621439e+01
     vertex -2.714481e+02 -1.000000e+02 -1.277338e+02
     vertex -2.532984e+02 -1.000000e+02 -1.607480e+02
   endloop
 endfacet
 facet normal 0.000000e+00 -1.000000e+00 0.000000e+00
   outer loop
     vertex -2.946862e+02 -1.000000e+02 -5.621439e+01
     vertex -2.853170e+02 -1.000000e+02 -9.270510e+01
     vertex -2.714481e+02 -1.000000e+02 -1.277338e+02
   endloop
 endfacet
 facet normal -0.000000e+00 -1.000000e+00 0.000000e+00
   outer loop
     vertex 2.853170e+02 -1.000000e+02 9.270510e+01
     vertex -2.311540e+02 -1.000000e+02 1.912272e+02
     vertex 2.714481e+02 -1.000000e+02 -1.277338e+02
   endloop
 endfacet
 facet normal 0.000000e+00 -1.000000e+00 0.000000e+00
   outer loop
     vertex 2.853170e+02 -1.000000e+02 9.270510e+01
     vertex 2.994080e+02 -1.000000e+02 1.883716e+01
     vertex 2.946862e+02 -1.000000e+02 5.621439e+01
   endloop
 endfacet
 facet normal 0.000000e+00 -1.000000e+00 0.000000e+00
   outer loop
     vertex 2.853170e+02 -1.000000e+02 9.270510e+01
     vertex 2.994080e+02 -1.000000e+02 -1.883716e+01
     vertex 2.994080e+02 -1.000000e+02 1.883716e+01
   endloop
 endfacet
 facet normal 0.000000e+00 -1.000000e+00 0.000000e+00
   outer loop
     vertex 2.853170e+02 -1.000000e+02 9.270510e+01
     vertex 2.946862e+02 -1.000000e+02 -5.621439e+01
     vertex 2.994080e+02 -1.000000e+02 -1.883716e+01
   endloop
 endfacet
 facet normal 0.000000e+00 -1.000000e+00 0.000000e+00
   outer loop
     vertex 2.853170e+02 -1.000000e+02 9.270510e+01
     vertex -7.347881e-14 -1.000000e+02 3.000000e+02
     vertex -7.460697e+01 -1.000000e+02 2.905749e+02
   endloop
 endfacet
 facet normal 0.000000e+00 -1.000000e+00 0.000000e+00
   outer loop
     vertex 2.853170e+02 -1.000000e+02 9.270510e+01
     vertex -7.460697e+01 -1.000000e+02 2.905749e+02
     vertex -2.311540e+02 -1.000000e+02 1.912272e+02
   endloop
 endfacet
 facet normal 0.000000e+00 -1.000000e+00 -0.000000e+00
   outer loop
     vertex 2.853170e+02 -1.000000e+02 9.270510e+01
     vertex 2.714481e+02 -1.000000e+02 -1.277338e+02
     vertex 2.946862e+02 -1.000000e+02 -5.621439e+01
   endloop
 endfacet
 facet normal 0.000000e+00 -1.000000e+00 0.000000e+00
   outer loop
     vertex 1.104374e+02 -1.000000e+02 2.789329e+02
     vertex 3.759997e+01 -1.000000e+02 2.976344e+02
     vertex -7.347881e-14 -1.000000e+02 3.000000e+02
   endloop
 endfacet
 facet normal 0.000000e+00 -1.000000e+00 0.000000e+00
   outer loop
     vertex 1.104374e+02 -1.000000e+02 2.789329e+02
     vertex 7.460697e+01 -1.000000e+02 2.905749e+02
     vertex 3.759997e+01 -1.000000e+02 2.976344e+02
   endloop
 endfacet
 facet normal -0.000000e+00 -1.000000e+00 -0.000000e+00
   outer loop
     vertex 1.104374e+02 -1.000000e+02 2.789329e+02
     vertex -7.347881e-14 -1.000000e+02 3.000000e+02
     vertex 2.853170e+02 -1.000000e+02 9.270510e+01
   endloop
 endfacet
 facet normal 0.000000e+00 -1.000000e+00 0.000000e+00
   outer loop
     vertex -3.629409e-13 -1.000000e+02 -3.000000e+02
     vertex -7.460697e+01 -1.000000e+02 -2.905749e+02
     vertex -3.759997e+01 -1.000000e+02 -2.976344e+02
   endloop
 endfacet
 facet normal -0.000000e+00 -1.000000e+00 -0.000000e+00
   outer loop
     vertex 1.445261e+02 -1.000000e+02 2.628920e+02
     vertex 1.104374e+02 -1.000000e+02 2.789329e+02
     vertex 2.853170e+02 -1.000000e+02 9.270510e+01
   endloop
 endfacet
 facet normal 0.000000e+00 -1.000000e+00 0.000000e+00
   outer loop
     vertex 2.532984e+02 -1.000000e+02 1.607480e+02
     vertex 2.853170e+02 -1.000000e+02 9.270510e+01
     vertex 2.714481e+02 -1.000000e+02 1.277338e+02
   endloop
 endfacet
 facet normal -0.000000e+00 -1.000000e+00 -0.000000e+00
   outer loop
     vertex 2.311540e+02 -1.000000e+02 1.912272e+02
     vertex 1.445261e+02 -1.000000e+02 2.628920e+02
     vertex 2.853170e+02 -1.000000e+02 9.270510e+01
   endloop
 endfacet
 facet normal 0.000000e+00 -1.000000e+00 0.000000e+00
   outer loop
     vertex 2.311540e+02 -1.000000e+02 1.912272e+02
     vertex 2.853170e+02 -1.000000e+02 9.270510e+01
     vertex 2.532984e+02 -1.000000e+02 1.607480e+02
   endloop
 endfacet
 facet normal -0.000000e+00 -1.000000e+00 0.000000e+00
   outer loop
     vertex 3.759997e+01 -1.000000e+02 -2.976344e+02
     vertex -7.460697e+01 -1.000000e+02 -2.905749e+02
     vertex -3.629409e-13 -1.000000e+02 -3.000000e+02
   endloop
 endfacet
 facet normal 0.000000e+00 -1.000000e+00 0.000000e+00
   outer loop
     vertex 2.053641e+02 -1.000000e+02 2.186906e+02
     vertex 1.763356e+02 -1.000000e+02 2.427051e+02
     vertex 1.445261e+02 -1.000000e+02 2.628920e+02
   endloop
 endfacet
 facet normal -0.000000e+00 -1.000000e+00 -0.000000e+00
   outer loop
     vertex 2.053641e+02 -1.000000e+02 2.186906e+02
     vertex 1.445261e+02 -1.000000e+02 2.628920e+02
     vertex 2.311540e+02 -1.000000e+02 1.912272e+02
   endloop
 endfacet
 facet normal 0.000000e+00 -1.000000e+00 0.000000e+00
   outer loop
     vertex -2.946862e+02 -1.000000e+02 5.621439e+01
     vertex -2.994080e+02 -1.000000e+02 -1.883716e+01
     vertex -2.946862e+02 -1.000000e+02 -5.621439e+01
   endloop
 endfacet
 facet normal 0.000000e+00 -1.000000e+00 0.000000e+00
   outer loop
     vertex -2.946862e+02 -1.000000e+02 5.621439e+01
     vertex -2.994080e+02 -1.000000e+02 1.883716e+01
     vertex -2.994080e+02 -1.000000e+02 -1.883716e+01
   endloop
 endfacet
 facet normal 0.000000e+00 -1.000000e+00 0.000000e+00
   outer loop
     vertex -2.946862e+02 -1.000000e+02 5.621439e+01
     vertex -2.532984e+02 -1.000000e+02 -1.607480e+02
     vertex -2.053641e+02 -1.000000e+02 -2.186906e+02
   endloop
 endfacet
 facet normal 0.000000e+00 -1.000000e+00 0.000000e+00
   outer loop
     vertex -2.946862e+02 -1.000000e+02 5.621439e+01
     vertex -2.053641e+02 -1.000000e+02 -2.186906e+02
     vertex -1.445261e+02 -1.000000e+02 -2.628920e+02
   endloop
 endfacet
 facet normal 0.000000e+00 -1.000000e+00 -0.000000e+00
   outer loop
     vertex -2.946862e+02 -1.000000e+02 5.621439e+01
     vertex -2.946862e+02 -1.000000e+02 -5.621439e+01
     vertex -2.532984e+02 -1.000000e+02 -1.607480e+02
   endloop
 endfacet
 facet normal -0.000000e+00 -1.000000e+00 0.000000e+00
   outer loop
     vertex 7.460697e+01 -1.000000e+02 -2.905749e+02
     vertex -7.460697e+01 -1.000000e+02 -2.905749e+02
     vertex 3.759997e+01 -1.000000e+02 -2.976344e+02
   endloop
 endfacet
 facet normal 0.000000e+00 -1.000000e+00 0.000000e+00
   outer loop
     vertex 1.445261e+02 -1.000000e+02 -2.628920e+02
     vertex 7.460697e+01 -1.000000e+02 -2.905749e+02
     vertex 1.104374e+02 -1.000000e+02 -2.789329e+02
   endloop
 endfacet
 facet normal 0.000000e+00 -1.000000e+00 0.000000e+00
   outer loop
     vertex -2.532984e+02 -1.000000e+02 1.607480e+02
     vertex -2.853170e+02 -1.000000e+02 9.270510e+01
     vertex -2.946862e+02 -1.000000e+02 5.621439e+01
   endloop
 endfacet
 facet normal 0.000000e+00 -1.000000e+00 0.000000e+00
   outer loop
     vertex -2.532984e+02 -1.000000e+02 1.607480e+02
     vertex -2.714481e+02 -1.000000e+02 1.277338e+02
     vertex -2.853170e+02 -1.000000e+02 9.270510e+01
   endloop
 endfacet
 facet normal 0.000000e+00 -1.000000e+00 0.000000e+00
   outer loop
     vertex 2.053641e+02 -1.000000e+02 -2.186906e+02
     vertex 1.445261e+02 -1.000000e+02 -2.628920e+02
     vertex 1.763356e+02 -1.000000e+02 -2.427051e+02
   endloop
 endfacet
 facet normal 0.000000e+00 -1.000000e+00 0.000000e+00
   outer loop
     vertex 2.053641e+02 -1.000000e+02 -2.186906e+02
     vertex -7.460697e+01 -1.000000e+02 -2.905749e+02
     vertex 7.460697e+01 -1.000000e+02 -2.905749e+02
   endloop
 endfacet
 facet normal 0.000000e+00 -1.000000e+00 0.000000e+00
   outer loop
     vertex 2.053641e+02 -1.000000e+02 -2.186906e+02
     vertex 7.460697e+01 -1.000000e+02 -2.905749e+02
     vertex 1.445261e+02 -1.000000e+02 -2.628920e+02
   endloop
 endfacet
 facet normal 0.000000e+00 -1.000000e+00 0.000000e+00
   outer loop
     vertex 2.714481e+02 -1.000000e+02 -1.277338e+02
     vertex 2.311540e+02 -1.000000e+02 -1.912272e+02
     vertex 2.532984e+02 -1.000000e+02 -1.607480e+02
   endloop
 endfacet
 facet normal 0.000000e+00 -1.000000e+00 0.000000e+00
   outer loop
     vertex 2.714481e+02 -1.000000e+02 -1.277338e+02
     vertex 2.053641e+02 -1.000000e+02 -2.186906e+02
     vertex 2.311540e+02 -1.000000e+02 -1.912272e+02
   endloop
 endfacet
 facet normal 0.000000e+00 -1.000000e+00 0.000000e+00
   outer loop
     vertex 2.714481e+02 -1.000000e+02 -1.277338e+02
     vertex -2.311540e+02 -1.000000e+02 1.912272e+02
     vertex -2.532984e+02 -1.000000e+02 1.607480e+02
   endloop
 endfacet
 facet normal 0.000000e+00 -1.000000e+00 0.000000e+00
   outer loop
     vertex 2.714481e+02 -1.000000e+02 -1.277338e+02
     vertex -1.445261e+02 -1.000000e+02 -2.628920e+02
     vertex -7.460697e+01 -1.000000e+02 -2.905749e+02
   endloop
 endfacet
 facet normal -0.000000e+00 -1.000000e+00 0.000000e+00
   outer loop
     vertex 2.714481e+02 -1.000000e+02 -1.277338e+02
     vertex -2.946862e+02 -1.000000e+02 5.621439e+01
     vertex -1.445261e+02 -1.000000e+02 -2.628920e+02
   endloop
 endfacet
 facet normal 0.000000e+00 -1.000000e+00 0.000000e+00
   outer loop
     vertex 2.714481e+02 -1.000000e+02 -1.277338e+02
     vertex -2.532984e+02 -1.000000e+02 1.607480e+02
     vertex -2.946862e+02 -1.000000e+02 5.621439e+01
   endloop
 endfacet
 facet normal 0.000000e+00 -1.000000e+00 0.000000e+00
   outer loop
     vertex 2.714481e+02 -1.000000e+02 -1.277338e+02
     vertex -7.460697e+01 -1.000000e+02 -2.905749e+02
     vertex 2.053641e+02 -1.000000e+02 -2.186906e+02
   endloop
 endfacet
endsolid shape
